<svg width="350" height="140" xmlns="http://www.w3.org/2000/svg" style="background:#f6f7f9"><g fill="none" fill-rule="evenodd"><path fill="#F04141" style="mix-blend-mode:multiply" d="M61.905-34.23l96.194 54.51-66.982 54.512L22 34.887z"/><circle fill="#10DC60" style="mix-blend-mode:multiply" cx="155.5" cy="135.5" r="57.5"/><path fill="#3880FF" style="mix-blend-mode:multiply" d="M208.538 9.513l84.417 15.392L223.93 93.93z"/><path fill="#FFCE00" style="mix-blend-mode:multiply" d="M268.625 106.557l46.332-26.75 46.332 26.75v53.5l-46.332 26.75-46.332-26.75z"/><circle fill="#7044FF" style="mix-blend-mode:multiply" cx="299.5" cy="9.5" r="38.5"/><rect fill="#11D3EA" style="mix-blend-mode:multiply" transform="rotate(-60 148.47 37.886)" x="143.372" y="-7.056" width="10.196" height="89.884" rx="5.098"/><path d="M-25.389 74.253l84.86 8.107c5.498.525 9.53 5.407 9.004 10.905a10 10 0 0 1-.057.477l-12.36 85.671a10.002 10.002 0 0 1-11.634 8.42l-86.351-15.226c-5.44-.959-9.07-6.145-8.112-11.584l13.851-78.551a10 10 0 0 1 10.799-8.219z" fill="#7044FF" style="mix-blend-mode:multiply"/><circle fill="#0CD1E8" style="mix-blend-mode:multiply" cx="273.5" cy="106.5" r="20.5"/></g></svg>
<svg class="svg-icon" viewBox="0 0 20 20">
							<path fill="none" d="M4.3,15.249H3.428c-0.241,0-0.436,0.195-0.436,0.436c0,0.241,0.195,0.437,0.436,0.437H4.3c0.241,0,0.436-0.195,0.436-0.437C4.736,15.444,4.541,15.249,4.3,15.249 M6.916,15.249H6.044c-0.241,0-0.436,0.195-0.436,0.436c0,0.241,0.195,0.437,0.436,0.437h0.872c0.241,0,0.436-0.195,0.436-0.437C7.352,15.444,7.157,15.249,6.916,15.249 M13.894,8.271h0.872c0.241,0,0.437-0.195,0.437-0.437c0-0.241-0.195-0.436-0.437-0.436h-0.872c-0.241,0-0.437,0.194-0.437,0.436C13.457,8.077,13.652,8.271,13.894,8.271 M4.3,7.399H3.428c-0.241,0-0.436,0.194-0.436,0.436c0,0.242,0.195,0.437,0.436,0.437H4.3c0.241,0,0.436-0.195,0.436-0.437C4.736,7.594,4.541,7.399,4.3,7.399 M15.638,11.324c-0.241,0-0.436,0.194-0.436,0.436s0.194,0.437,0.436,0.437s0.437-0.195,0.437-0.437S15.879,11.324,15.638,11.324 M14.766,15.249h-0.872c-0.241,0-0.437,0.195-0.437,0.436c0,0.241,0.195,0.437,0.437,0.437h0.872c0.241,0,0.437-0.195,0.437-0.437C15.202,15.444,15.007,15.249,14.766,15.249 M12.149,7.399h-0.872c-0.241,0-0.437,0.194-0.437,0.436c0,0.242,0.195,0.437,0.437,0.437h0.872c0.24,0,0.436-0.195,0.436-0.437C12.585,7.594,12.39,7.399,12.149,7.399 M17.818,9.144V5.655c0-0.939-0.745-1.7-1.676-1.737l-0.104-0.859L9.276,3.88L2.824,2.151l-0.471,1.76H2.119c-0.963,0-1.744,0.781-1.744,1.744v10.466c0,0.963,0.781,1.744,1.744,1.744h13.955c0.963,0,1.744-0.781,1.744-1.744v-1.744c0.963,0,1.744-0.781,1.744-1.745v-1.744C19.562,9.925,18.781,9.144,17.818,9.144 M16.946,5.655v0.242c-0.18-0.104-0.377-0.178-0.589-0.213L16.25,4.801C16.646,4.882,16.946,5.234,16.946,5.655 M15.277,4.029l0.184,1.507l-3.929-1.052L15.277,4.029z M3.44,3.219l9.09,2.436H2.788L3.44,3.219z M1.247,5.655c0-0.481,0.39-0.872,0.871-0.872l-0.24,0.896C1.65,5.711,1.438,5.786,1.247,5.897V5.655z M16.946,16.121c0,0.48-0.392,0.872-0.872,0.872H2.119c-0.482,0-0.872-0.392-0.872-0.872V7.399c0-0.481,0.39-0.872,0.872-0.872h13.955c0.48,0,0.872,0.391,0.872,0.872v1.744h-1.744c-0.964,0-1.745,0.781-1.745,1.744v1.744c0,0.964,0.781,1.745,1.745,1.745h1.744V16.121z M18.69,12.632c0,0.481-0.392,0.873-0.872,0.873h-2.616c-0.482,0-0.873-0.392-0.873-0.873v-1.744c0-0.481,0.391-0.872,0.873-0.872h2.616c0.48,0,0.872,0.391,0.872,0.872V12.632z M12.149,15.249h-0.872c-0.241,0-0.437,0.195-0.437,0.436c0,0.241,0.195,0.437,0.437,0.437h0.872c0.24,0,0.436-0.195,0.436-0.437C12.585,15.444,12.39,15.249,12.149,15.249 M9.533,15.249H8.661c-0.241,0-0.436,0.195-0.436,0.436c0,0.241,0.195,0.437,0.436,0.437h0.872c0.241,0,0.436-0.195,0.436-0.437C9.969,15.444,9.774,15.249,9.533,15.249 M6.916,7.399H6.044c-0.241,0-0.436,0.194-0.436,0.436c0,0.242,0.195,0.437,0.436,0.437h0.872c0.241,0,0.436-0.195,0.436-0.437C7.352,7.594,7.157,7.399,6.916,7.399 M9.533,7.399H8.661c-0.241,0-0.436,0.194-0.436,0.436c0,0.242,0.195,0.437,0.436,0.437h0.872c0.241,0,0.436-0.195,0.436-0.437C9.969,7.594,9.774,7.399,9.533,7.399"></path>
						</svg>